<?xml version="1.0" encoding="UTF-8"?>
<!DOCTYPE svg PUBLIC "-//W3C//DTD SVG 1.1//EN" "http://www.w3.org/Graphics/SVG/1.1/DTD/svg11.dtd">
<!-- Creator: CorelDRAW 2020 (64-Bit) -->
<svg xmlns="http://www.w3.org/2000/svg" xml:space="preserve" width="41.7682mm" height="41.3979mm" version="1.1" style="shape-rendering:geometricPrecision; text-rendering:geometricPrecision; image-rendering:optimizeQuality; fill-rule:evenodd; clip-rule:evenodd"
viewBox="0 0 76.32 75.64"
 xmlns:xlink="http://www.w3.org/1999/xlink"
 xmlns:xodm="http://www.corel.com/coreldraw/odm/2003">
 <defs>
  <style type="text/css">
   <![CDATA[
    .fil0 {fill:#5F598E}
   ]]>
  </style>
 </defs>
 <g id="Layer_x0020_1">
  <metadata id="CorelCorpID_0Corel-Layer"/>
  <path class="fil0" d="M5.74 7.73c0,10.27 11.57,8.22 17.89,8.22 8.54,0 17.08,0 25.62,0 -0.89,1.33 -2.02,2.43 -3.31,3.46 -4.47,3.56 -32.02,31.64 -37.66,37.27 -3.05,3.05 -12.76,9.77 -5.83,16.71 2.42,2.42 6.48,3.03 9.65,1.13 2.39,-1.43 5.02,-4.43 7.06,-6.48 3.56,-3.56 39.08,-39.54 41.21,-40.97 0,4.52 -0.5,34.48 0.27,37.44 1.62,6.17 10.13,7.64 13.98,2.44 1.29,-1.74 1.7,-4.18 1.7,-7l0 -49.31c0,-4.74 -1.28,-10.64 -6.77,-10.64l-55.59 0c-4.46,0 -8.22,3.25 -8.22,7.73z"/>
 </g>
</svg>
