<?xml version="1.0" encoding="UTF-8"?>
<!DOCTYPE svg PUBLIC "-//W3C//DTD SVG 1.1//EN" "http://www.w3.org/Graphics/SVG/1.1/DTD/svg11.dtd">
<!-- Creator: CorelDRAW 2020 (64-Bit) -->
<svg xmlns="http://www.w3.org/2000/svg" xml:space="preserve" width="130.2mm" height="135.467mm" version="1.1" style="shape-rendering:geometricPrecision; text-rendering:geometricPrecision; image-rendering:optimizeQuality; fill-rule:evenodd; clip-rule:evenodd"
viewBox="0 0 3113.55 3239.49"
 xmlns:xlink="http://www.w3.org/1999/xlink"
 xmlns:xodm="http://www.corel.com/coreldraw/odm/2003">
 <defs>
  <style type="text/css">
   <![CDATA[
    .fil0 {fill:#C9509C}
   ]]>
  </style>
 </defs>
 <g id="Layer_x0020_1">
  <metadata id="CorelCorpID_0Corel-Layer"/>
  <g id="_2750566278672">
   <path class="fil0" d="M190.42 1208.48c0,-66.06 54.36,-87.53 103.37,-111.76l139.73 -75.39c95.09,-56.92 165.86,-78.38 198.31,-231.93l48.67 -274.01c28.53,-102.64 136.8,-65.58 230.11,-52.43 133.53,18.83 214.92,51.39 332.24,-17.94 49.4,-29.19 60.68,-56.31 101.77,-88.04 37.81,-29.2 63.83,-59.68 96.98,-92.83 99.22,-99.22 126.88,-104.07 227.78,-3.16 36.94,36.94 161.18,159.69 197.93,181.7 186.74,111.8 415.62,-36.32 514.37,10.74 26.6,12.68 40.86,27.78 50.48,57.12l49.07 273.61c32.95,161.38 132.89,206.75 265.39,272.42l139.53 75.6c83.67,60.99 -1.29,173.31 -44.67,259.79 -15.48,30.87 -28.66,64.32 -44.29,94.91 -69.5,136.02 -18.44,235.86 42.18,356.43 46.72,92.93 127.4,199.66 50.44,261.33 -18.78,15.05 -46.22,26.64 -69.44,38.12 -68.87,34.05 -225.68,115.65 -268.47,161.77 -73.11,78.8 -83.52,217.17 -101.78,328.46 -17.76,108.24 -19.59,176.25 -152.4,156.94 -169.97,-24.71 -300.26,-70.04 -426.41,4.52 -49.4,29.19 -60.68,56.31 -101.77,88.04 -37.81,29.2 -63.83,59.68 -96.98,92.83 -102.29,102.29 -128.65,102.29 -230.94,0 -35.35,-35.35 -163.41,-160.42 -198.76,-180.87 -115.75,-66.96 -203.75,-36.06 -332.23,-17.94 -34.02,4.8 -62.51,8.82 -94.18,13.42 -39.05,5.68 -56.36,10.56 -88.18,-6.02 -26.13,-13.62 -37.48,-27.4 -46.77,-60.81 -35.29,-126.94 -26.8,-314.54 -116.18,-415.3 -42.15,-47.52 -74.45,-56.25 -127.86,-87.27l-209.45 -113.23c-83.67,-60.99 1.29,-173.31 44.67,-259.79 15.48,-30.87 28.66,-64.32 44.29,-94.91 42.3,-82.79 44.83,-177.97 2.15,-261.56 -22.07,-43.22 -128.69,-260.41 -128.69,-282.57zm582.1 -955.4c-124.09,0 -209.44,69.06 -259.6,170.65 -37.96,76.89 -48.91,293.53 -75.52,354.73 -22.21,51.09 -131.96,97.19 -194.33,128.35 -27.29,13.64 -41.35,24.06 -69.58,37.99 -46.78,23.07 -89.94,55.25 -118.65,96.47 -98.86,141.9 -45.53,248.99 15.39,369.66 13.04,25.82 88.55,179.75 88.55,196.17 0,58.3 -10.98,60.03 -42.18,122.32 -43.82,87.49 -116,221.05 -116,307.92 0,208.44 194.92,262.56 309.75,329.29 153.9,89.43 118.36,42.95 161.12,269.12 20.72,109.56 26.76,223.63 133.75,296.49 128.07,87.22 243.35,44.9 407.36,22.18 145.75,-20.19 126.5,-10.33 264.51,128.48 70.45,70.86 158.69,156.59 261,156.59 99.35,0 154.91,-17.42 223.04,-86.98 27.75,-28.34 195.64,-189.07 217.8,-199.82 53.67,-26.03 285,33.72 362.69,33.72 124.09,0 209.44,-69.06 259.6,-170.65 37.96,-76.89 48.91,-293.53 75.52,-354.73 22.21,-51.09 131.96,-97.19 194.33,-128.35 27.29,-13.64 41.35,-24.06 69.58,-37.99 97.21,-47.94 172.89,-139.69 172.89,-257.36 0,-87.07 -41,-151.95 -71.76,-212.97 -17.42,-34.57 -28.98,-64.46 -46.35,-99.17 -53.32,-106.54 -54.4,-102.16 -2.11,-206.68 44.35,-88.65 120.22,-228.57 120.22,-316.36 0,-63.18 -24.94,-117.78 -51.69,-157.1 -84.91,-124.85 -342.39,-179.05 -383.12,-262.25 -24.92,-50.91 -41.86,-284.65 -75.39,-354.86 -49.54,-103.72 -142.77,-174.86 -255.39,-174.86 -42.73,0 -190.31,24.22 -246.41,31.99 -123.95,17.17 -120.83,15.26 -194.91,-58.88 -90.79,-90.86 -209.23,-226.2 -330.59,-226.2 -99.35,0 -154.91,17.42 -223.04,86.98 -27.75,28.34 -195.64,189.07 -217.8,199.82 -53.67,26.03 -285,-33.72 -362.69,-33.72z"/>
   <path class="fil0" d="M848.44 2220.82c0,80.84 26.72,107.56 107.56,107.56 46.43,0 143.46,-114.99 175.58,-147.1l983.87 -983.87c86.62,-86.62 150.27,-118.41 150.27,-210.38 0,-61.22 -60.01,-75.93 -107.56,-75.93 -46.43,0 -143.46,114.99 -175.58,147.1l-983.87 983.87c-32.45,32.45 -150.27,132.15 -150.27,178.74z"/>
   <path class="fil0" d="M1031.92 1126.23c0,-207.39 303.7,-216.83 303.7,6.33 0,179.39 -303.7,197.86 -303.7,-6.33zm-189.81 -37.96c0,73.49 -2.34,120.82 33.61,187.84 85.96,160.25 270.04,235 442.89,162.11 38.35,-16.17 70.39,-40.52 98.33,-66.17l18.98 -18.98c7.8,-8.5 13.88,-14.47 20.94,-23.35 90.9,-114.14 92.41,-298.3 6.27,-406.94 -41.81,-52.73 -29.53,-40.44 -82.25,-82.25 -15.94,-12.64 -32.91,-22.3 -51.61,-30.65 -260.39,-116.27 -487.17,104.36 -487.17,278.38z"/>
   <path class="fil0" d="M1778.52 2132.24c0,-228.56 303.7,-207.62 303.7,-18.98 0,221.34 -303.7,191.97 -303.7,18.98zm-189.81 -44.29c0,145.35 32.56,222.2 144.55,311 119.87,95.05 317.4,79.44 432.96,-30.87 27.04,-25.81 51.15,-56.37 67.94,-90.23 48.04,-96.87 54.81,-220.26 4.27,-314.47 -141.84,-264.41 -488.12,-239.11 -613.92,-4.13 -15.04,28.08 -35.8,88.76 -35.8,128.7z"/>
  </g>
 </g>
</svg>
